# xmcd CD database file
#
# Track frame offsets:
#	150
#	18230
#	41687
#	61617
#	75442
#	97395
#	117005
#	140897
#	164005
#	181847
#	195885
#	212832
#	229565
#
# Disc length: 3325 seconds
#
# Revision: 0
# Processed by: cddbd v1.5.2PL0 Copyright (c) Steve Scherf et al.
# Submitted via: CDex 1.51
#
DISCID=a70cfb0d
DTITLE=Barry Franks - Roaring Sky and the Sea of Glass
DYEAR=1993
DGENRE=New Age
TTITLE0=Race Across the Desert
TTITLE1=Roaring Sky
TTITLE2=After the Quake
TTITLE3=Beirut
TTITLE4=Joburg
TTITLE5=Swooping Gulls
TTITLE6=Dance in the Pyramid
TTITLE7=Sea of Glass
TTITLE8=Soaring
TTITLE9=Spindrift
TTITLE10=Equilibrium
TTITLE11=Memories of a lost race
TTITLE12=Rising through Clouds
EXTD=YEAR: 1993
EXTT0=
EXTT1=
EXTT2=
EXTT3=
EXTT4=
EXTT5=
EXTT6=
EXTT7=
EXTT8=
EXTT9=
EXTT10=
EXTT11=
EXTT12=
PLAYORDER=
